<mxfile host="app.diagrams.net" agent="Mozilla/5.0 (Windows NT 10.0; Win64; x64) AppleWebKit/537.36 (KHTML, like Gecko) Chrome/131.0.0.0 Safari/537.36 OPR/116.0.0.0" version="26.0.11">
  <diagram name="Strona-1" id="Fe7Hsvomiq4MP2yeBnqJ">
    <mxGraphModel dx="1236" dy="1726" grid="1" gridSize="10" guides="1" tooltips="1" connect="1" arrows="1" fold="1" page="1" pageScale="1" pageWidth="827" pageHeight="1169" math="0" shadow="0">
      <root>
        <mxCell id="0" />
        <mxCell id="1" parent="0" />
        <mxCell id="ms9E_h8TE_Jg9EmPVrr3-1" value="Cinema" style="swimlane;fontStyle=1;align=center;verticalAlign=top;childLayout=stackLayout;horizontal=1;startSize=26;horizontalStack=0;resizeParent=1;resizeParentMax=0;resizeLast=0;collapsible=1;marginBottom=0;whiteSpace=wrap;html=1;" parent="1" vertex="1">
          <mxGeometry x="320" y="-60" width="160" height="160" as="geometry" />
        </mxCell>
        <mxCell id="ms9E_h8TE_Jg9EmPVrr3-2" value=" - cinemaName: String&lt;br&gt;- cinemaAddress: String&lt;br&gt;- screenings: ArrayList&amp;lt;&amp;gt;()" style="text;strokeColor=none;fillColor=none;align=left;verticalAlign=top;spacingLeft=4;spacingRight=4;overflow=hidden;rotatable=0;points=[[0,0.5],[1,0.5]];portConstraint=eastwest;whiteSpace=wrap;html=1;" parent="ms9E_h8TE_Jg9EmPVrr3-1" vertex="1">
          <mxGeometry y="26" width="160" height="54" as="geometry" />
        </mxCell>
        <mxCell id="ms9E_h8TE_Jg9EmPVrr3-3" value="" style="line;strokeWidth=1;fillColor=none;align=left;verticalAlign=middle;spacingTop=-1;spacingLeft=3;spacingRight=3;rotatable=0;labelPosition=right;points=[];portConstraint=eastwest;strokeColor=inherit;" parent="ms9E_h8TE_Jg9EmPVrr3-1" vertex="1">
          <mxGeometry y="80" width="160" height="8" as="geometry" />
        </mxCell>
        <mxCell id="ms9E_h8TE_Jg9EmPVrr3-4" value="+ getCinemaName()&lt;br&gt;+ getCinemaAddress()&lt;br&gt;+ addScreening()&lt;br&gt;+ printProgramme()" style="text;strokeColor=none;fillColor=none;align=left;verticalAlign=top;spacingLeft=4;spacingRight=4;overflow=hidden;rotatable=0;points=[[0,0.5],[1,0.5]];portConstraint=eastwest;whiteSpace=wrap;html=1;" parent="ms9E_h8TE_Jg9EmPVrr3-1" vertex="1">
          <mxGeometry y="88" width="160" height="72" as="geometry" />
        </mxCell>
        <mxCell id="ms9E_h8TE_Jg9EmPVrr3-5" value="Screening" style="swimlane;fontStyle=1;align=center;verticalAlign=top;childLayout=stackLayout;horizontal=1;startSize=26;horizontalStack=0;resizeParent=1;resizeParentMax=0;resizeLast=0;collapsible=1;marginBottom=0;whiteSpace=wrap;html=1;" parent="1" vertex="1">
          <mxGeometry x="320" y="200" width="160" height="210" as="geometry" />
        </mxCell>
        <mxCell id="ms9E_h8TE_Jg9EmPVrr3-6" value="- movie: String&lt;br&gt;- &lt;span class=&quot;hljs-built_in&quot;&gt;date: LocalDate&lt;/span&gt;&lt;br&gt;- &lt;span class=&quot;hljs-built_in&quot;&gt;time: LocalTime&lt;/span&gt;&lt;br&gt;- cinema: Cinema&lt;br&gt;- ticketsList: List&amp;lt;Ticket&amp;gt;" style="text;strokeColor=none;fillColor=none;align=left;verticalAlign=top;spacingLeft=4;spacingRight=4;overflow=hidden;rotatable=0;points=[[0,0.5],[1,0.5]];portConstraint=eastwest;whiteSpace=wrap;html=1;" parent="ms9E_h8TE_Jg9EmPVrr3-5" vertex="1">
          <mxGeometry y="26" width="160" height="84" as="geometry" />
        </mxCell>
        <mxCell id="ms9E_h8TE_Jg9EmPVrr3-7" value="" style="line;strokeWidth=1;fillColor=none;align=left;verticalAlign=middle;spacingTop=-1;spacingLeft=3;spacingRight=3;rotatable=0;labelPosition=right;points=[];portConstraint=eastwest;strokeColor=inherit;" parent="ms9E_h8TE_Jg9EmPVrr3-5" vertex="1">
          <mxGeometry y="110" width="160" height="8" as="geometry" />
        </mxCell>
        <mxCell id="ms9E_h8TE_Jg9EmPVrr3-8" value="+ getMovie()&lt;br&gt;+ getDate()&lt;br&gt;+ getTime()&lt;br&gt;+ getCinema()&lt;br&gt;+ addTicket() " style="text;strokeColor=none;fillColor=none;align=left;verticalAlign=top;spacingLeft=4;spacingRight=4;overflow=hidden;rotatable=0;points=[[0,0.5],[1,0.5]];portConstraint=eastwest;whiteSpace=wrap;html=1;" parent="ms9E_h8TE_Jg9EmPVrr3-5" vertex="1">
          <mxGeometry y="118" width="160" height="92" as="geometry" />
        </mxCell>
        <mxCell id="ms9E_h8TE_Jg9EmPVrr3-9" value="Client" style="swimlane;fontStyle=1;align=center;verticalAlign=top;childLayout=stackLayout;horizontal=1;startSize=26;horizontalStack=0;resizeParent=1;resizeParentMax=0;resizeLast=0;collapsible=1;marginBottom=0;whiteSpace=wrap;html=1;" parent="1" vertex="1">
          <mxGeometry x="80" y="220" width="160" height="160" as="geometry" />
        </mxCell>
        <mxCell id="ms9E_h8TE_Jg9EmPVrr3-10" value=" - firstName&lt;br&gt;- lastName&lt;br&gt;- email&lt;br&gt;- ticketList  " style="text;strokeColor=none;fillColor=none;align=left;verticalAlign=top;spacingLeft=4;spacingRight=4;overflow=hidden;rotatable=0;points=[[0,0.5],[1,0.5]];portConstraint=eastwest;whiteSpace=wrap;html=1;" parent="ms9E_h8TE_Jg9EmPVrr3-9" vertex="1">
          <mxGeometry y="26" width="160" height="74" as="geometry" />
        </mxCell>
        <mxCell id="ms9E_h8TE_Jg9EmPVrr3-11" value="" style="line;strokeWidth=1;fillColor=none;align=left;verticalAlign=middle;spacingTop=-1;spacingLeft=3;spacingRight=3;rotatable=0;labelPosition=right;points=[];portConstraint=eastwest;strokeColor=inherit;" parent="ms9E_h8TE_Jg9EmPVrr3-9" vertex="1">
          <mxGeometry y="100" width="160" height="8" as="geometry" />
        </mxCell>
        <mxCell id="ms9E_h8TE_Jg9EmPVrr3-12" value="+ addTicket()&lt;br&gt;+ printTicketDetails()" style="text;strokeColor=none;fillColor=none;align=left;verticalAlign=top;spacingLeft=4;spacingRight=4;overflow=hidden;rotatable=0;points=[[0,0.5],[1,0.5]];portConstraint=eastwest;whiteSpace=wrap;html=1;" parent="ms9E_h8TE_Jg9EmPVrr3-9" vertex="1">
          <mxGeometry y="108" width="160" height="52" as="geometry" />
        </mxCell>
        <mxCell id="ms9E_h8TE_Jg9EmPVrr3-13" value="Movie" style="swimlane;fontStyle=1;align=center;verticalAlign=top;childLayout=stackLayout;horizontal=1;startSize=26;horizontalStack=0;resizeParent=1;resizeParentMax=0;resizeLast=0;collapsible=1;marginBottom=0;whiteSpace=wrap;html=1;" parent="1" vertex="1">
          <mxGeometry x="600" y="200" width="160" height="150" as="geometry" />
        </mxCell>
        <mxCell id="ms9E_h8TE_Jg9EmPVrr3-14" value="- title: String&lt;br&gt;- isVIP: boolean&lt;br&gt;- is3D: boolean" style="text;strokeColor=none;fillColor=none;align=left;verticalAlign=top;spacingLeft=4;spacingRight=4;overflow=hidden;rotatable=0;points=[[0,0.5],[1,0.5]];portConstraint=eastwest;whiteSpace=wrap;html=1;" parent="ms9E_h8TE_Jg9EmPVrr3-13" vertex="1">
          <mxGeometry y="26" width="160" height="54" as="geometry" />
        </mxCell>
        <mxCell id="ms9E_h8TE_Jg9EmPVrr3-15" value="" style="line;strokeWidth=1;fillColor=none;align=left;verticalAlign=middle;spacingTop=-1;spacingLeft=3;spacingRight=3;rotatable=0;labelPosition=right;points=[];portConstraint=eastwest;strokeColor=inherit;" parent="ms9E_h8TE_Jg9EmPVrr3-13" vertex="1">
          <mxGeometry y="80" width="160" height="8" as="geometry" />
        </mxCell>
        <mxCell id="ms9E_h8TE_Jg9EmPVrr3-16" value="+ getTitle()&lt;br&gt;+ isVIP()&lt;br&gt;+ is3D()  " style="text;strokeColor=none;fillColor=none;align=left;verticalAlign=top;spacingLeft=4;spacingRight=4;overflow=hidden;rotatable=0;points=[[0,0.5],[1,0.5]];portConstraint=eastwest;whiteSpace=wrap;html=1;" parent="ms9E_h8TE_Jg9EmPVrr3-13" vertex="1">
          <mxGeometry y="88" width="160" height="62" as="geometry" />
        </mxCell>
        <mxCell id="ms9E_h8TE_Jg9EmPVrr3-17" value="Ticket" style="swimlane;fontStyle=1;align=center;verticalAlign=top;childLayout=stackLayout;horizontal=1;startSize=26;horizontalStack=0;resizeParent=1;resizeParentMax=0;resizeLast=0;collapsible=1;marginBottom=0;whiteSpace=wrap;html=1;" parent="1" vertex="1">
          <mxGeometry x="190" y="510" width="180" height="180" as="geometry" />
        </mxCell>
        <mxCell id="ms9E_h8TE_Jg9EmPVrr3-18" value=" - cinemaRoom: String&lt;br&gt;- ticketPrice: float&lt;br&gt;- reservedSeats: Set&amp;lt;String&amp;gt;&lt;br&gt;- screening: Screening" style="text;strokeColor=none;fillColor=none;align=left;verticalAlign=top;spacingLeft=4;spacingRight=4;overflow=hidden;rotatable=0;points=[[0,0.5],[1,0.5]];portConstraint=eastwest;whiteSpace=wrap;html=1;" parent="ms9E_h8TE_Jg9EmPVrr3-17" vertex="1">
          <mxGeometry y="26" width="180" height="74" as="geometry" />
        </mxCell>
        <mxCell id="ms9E_h8TE_Jg9EmPVrr3-19" value="" style="line;strokeWidth=1;fillColor=none;align=left;verticalAlign=middle;spacingTop=-1;spacingLeft=3;spacingRight=3;rotatable=0;labelPosition=right;points=[];portConstraint=eastwest;strokeColor=inherit;" parent="ms9E_h8TE_Jg9EmPVrr3-17" vertex="1">
          <mxGeometry y="100" width="180" height="8" as="geometry" />
        </mxCell>
        <mxCell id="ms9E_h8TE_Jg9EmPVrr3-20" value="+ getCinemaRoom()&lt;br&gt;+ getTicketPrice()&lt;br&gt;+ getReservedSeats()&lt;br&gt;+ getScreening()" style="text;strokeColor=none;fillColor=none;align=left;verticalAlign=top;spacingLeft=4;spacingRight=4;overflow=hidden;rotatable=0;points=[[0,0.5],[1,0.5]];portConstraint=eastwest;whiteSpace=wrap;html=1;" parent="ms9E_h8TE_Jg9EmPVrr3-17" vertex="1">
          <mxGeometry y="108" width="180" height="72" as="geometry" />
        </mxCell>
        <mxCell id="ms9E_h8TE_Jg9EmPVrr3-22" value="" style="endArrow=diamondThin;endFill=0;endSize=24;html=1;rounded=0;exitX=0.5;exitY=0;exitDx=0;exitDy=0;" parent="1" source="ms9E_h8TE_Jg9EmPVrr3-5" target="ms9E_h8TE_Jg9EmPVrr3-4" edge="1">
          <mxGeometry width="160" relative="1" as="geometry">
            <mxPoint x="330" y="290" as="sourcePoint" />
            <mxPoint x="490" y="290" as="targetPoint" />
          </mxGeometry>
        </mxCell>
        <mxCell id="ms9E_h8TE_Jg9EmPVrr3-23" value="" style="endArrow=diamondThin;endFill=1;endSize=24;html=1;rounded=0;exitX=0.5;exitY=0;exitDx=0;exitDy=0;entryX=0.499;entryY=1.008;entryDx=0;entryDy=0;entryPerimeter=0;" parent="1" source="ms9E_h8TE_Jg9EmPVrr3-17" target="ms9E_h8TE_Jg9EmPVrr3-8" edge="1">
          <mxGeometry width="160" relative="1" as="geometry">
            <mxPoint x="330" y="290" as="sourcePoint" />
            <mxPoint x="370" y="310" as="targetPoint" />
            <Array as="points">
              <mxPoint x="280" y="440" />
              <mxPoint x="400" y="440" />
              <mxPoint x="400" y="410" />
            </Array>
          </mxGeometry>
        </mxCell>
        <mxCell id="ms9E_h8TE_Jg9EmPVrr3-24" value="" style="endArrow=diamondThin;endFill=0;endSize=24;html=1;rounded=0;exitX=0.5;exitY=0;exitDx=0;exitDy=0;entryX=0.504;entryY=1.038;entryDx=0;entryDy=0;entryPerimeter=0;" parent="1" source="ms9E_h8TE_Jg9EmPVrr3-17" target="ms9E_h8TE_Jg9EmPVrr3-12" edge="1">
          <mxGeometry width="160" relative="1" as="geometry">
            <mxPoint x="330" y="290" as="sourcePoint" />
            <mxPoint x="490" y="290" as="targetPoint" />
            <Array as="points">
              <mxPoint x="280" y="440" />
              <mxPoint x="160" y="440" />
            </Array>
          </mxGeometry>
        </mxCell>
        <mxCell id="ms9E_h8TE_Jg9EmPVrr3-28" value="" style="endArrow=none;html=1;edgeStyle=orthogonalEdgeStyle;rounded=0;entryX=1;entryY=0.5;entryDx=0;entryDy=0;exitX=0;exitY=0.5;exitDx=0;exitDy=0;" parent="1" source="ms9E_h8TE_Jg9EmPVrr3-14" target="ms9E_h8TE_Jg9EmPVrr3-6" edge="1">
          <mxGeometry relative="1" as="geometry">
            <mxPoint x="330" y="290" as="sourcePoint" />
            <mxPoint x="490" y="290" as="targetPoint" />
          </mxGeometry>
        </mxCell>
        <mxCell id="ms9E_h8TE_Jg9EmPVrr3-29" value="parent" style="edgeLabel;resizable=0;html=1;align=left;verticalAlign=bottom;" parent="ms9E_h8TE_Jg9EmPVrr3-28" connectable="0" vertex="1">
          <mxGeometry x="-1" relative="1" as="geometry">
            <mxPoint x="-40" as="offset" />
          </mxGeometry>
        </mxCell>
        <mxCell id="ms9E_h8TE_Jg9EmPVrr3-30" value="child" style="edgeLabel;resizable=0;html=1;align=right;verticalAlign=bottom;" parent="ms9E_h8TE_Jg9EmPVrr3-28" connectable="0" vertex="1">
          <mxGeometry x="1" relative="1" as="geometry">
            <mxPoint x="30" as="offset" />
          </mxGeometry>
        </mxCell>
      </root>
    </mxGraphModel>
  </diagram>
</mxfile>
